#!OML:ASF F:\Work\Patient Classification 1\justin\Session 1\justin.ASF
:FULLY-SPECIFIED
:DEGREES
7581
root 1.10706 16.5146 5.84383 4.27461 -45.1401 -10.4101
lowerback 19.1397 0.668275 1.86142
upperback 1.01628 1.72126 5.20464
thorax -9.7722 0.830935 4.18916
lowerneck -18.4627 8.53978 -9.46096
upperneck 14.0951 13.3882 3.66658
head 6.40876 6.2771 4.00085
rclavicle 4.57205e-015 -2.94201e-014
rhumerus -28.988 31.3555 -86.9275
rradius 131.484
rwrist -14.8206
rhand -14.652 26.6391
rfingers 7.12502
rthumb 11.5004 -3.0254
lclavicle 4.57205e-015 -2.94201e-014
lhumerus -19.3005 7.66107 49.6255
lradius 113.136
lwrist 29.082
lhand -10.0436 17.4413
lfingers 7.12502
lthumb 15.9417 46.8052
rfemur 0.984954 2.64858 19.4824
rtibia 44.3226
rfoot -31.4077 -6.64037
rtoes -31.1651
lfemur -30.5182 8.18251 5.68358
ltibia 42.0514
lfoot 3.1871 -2.50793
ltoes -25.5178
7582
root 1.08447 16.4849 5.78101 4.07512 -45.0464 -10.6975
lowerback 18.6966 0.738233 2.63803
upperback 1.47135 1.8956 4.95024
thorax -8.99628 0.868988 3.40233
lowerneck -18.8694 8.37424 -9.23985
upperneck 14.3424 13.1457 3.731
head 6.58213 6.16432 4.00733
rclavicle -1.17283e-014 2.3059e-014
rhumerus -27.8919 30.8902 -86.5634
rradius 131.559
rwrist -15.341
rhand -14.9396 26.5035
rfingers 7.12502
rthumb 11.2231 -3.17628
lclavicle -1.17283e-014 2.3059e-014
lhumerus -20.1682 7.65014 51.3716
lradius 116.005
lwrist 29.7308
lhand -9.66 16.911
lfingers 7.12502
lthumb 16.311 46.245
rfemur 1.35132 2.28552 19.8989
rtibia 44.3502
rfoot -31.8358 -6.85659
rtoes -31.5117
lfemur -30.1604 8.211 6.12764
ltibia 41.8481
lfoot 3.36826 -2.47922
ltoes -24.85
7583
root 1.05443 16.4698 5.73409 3.21931 -45.0638 -10.1188
lowerback 18.5125 0.987057 2.48448
upperback 1.69964 2.1534 4.78767
thorax -8.65253 0.995438 3.24029
lowerneck -19.1342 8.22494 -9.16515
upperneck 14.7122 12.9637 3.72718
head 6.76435 6.06163 4.01496
rclavicle -2.6339e-014 2.14687e-014
rhumerus -27.312 30.5264 -86.0925
rradius 131.501
rwrist -15.478
rhand -14.9412 26.5006
rfingers 7.12502
rthumb 11.2215 -3.17926
lclavicle -2.6339e-014 2.14687e-014
lhumerus -21.5503 7.40684 53.4741
lradius 118.756
lwrist 30.2322
lhand -9.35285 16.455
lfingers 7.12502
lthumb 16.6068 45.7645
rfemur 1.8655 1.80456 19.4703
rtibia 44.3385
rfoot -32.3262 -6.87954
rtoes -32.101
lfemur -29.5446 8.00386 5.82879
ltibia 41.5932
lfoot 3.37347 -2.13282
ltoes -24.2634
7584
root 1.0318 16.4459 5.65211 3.39619 -44.5937 -10.6249
lowerback 18.4126 0.995009 2.96853
upperback 1.69056 2.26404 4.87732
thorax -8.59729 1.03192 3.03436
lowerneck -18.953 8.11191 -8.93096
upperneck 14.6465 12.7834 3.42438
head 6.76373 5.95932 3.85942
rclavicle -8.31914e-014 2.62396e-014
rhumerus -26.8896 30.345 -85.9207
rradius 131.197
rwrist -14.9772
rhand -15.5855 27.2385
rfingers 7.12502
rthumb 10.6 -2.47415
lclavicle -8.31914e-014 2.62396e-014
lhumerus -23.2453 7.21695 55.4737
lradius 121.305
lwrist 30.2413
lhand -8.30446 15.4363
lfingers 7.12502
lthumb 17.6159 44.6583
rfemur 1.91928 1.27794 20.2286
rtibia 44.3674
rfoot -32.5691 -7.52165
rtoes -32.763
lfemur -29.588 7.70012 6.41951
ltibia 41.2577
lfoot 3.74436 -1.93266
ltoes -24.3583
7585
root 1.01124 16.4224 5.56965 3.32561 -44.1497 -10.858
lowerback 18.2607 0.987106 3.37061
upperback 1.76289 2.31499 4.82247
thorax -8.4171 1.04154 2.73226
lowerneck -18.7489 8.02613 -8.56287
upperneck 14.4672 12.6004 3.11546
head 6.72978 5.8679 3.67588
rclavicle -2.93207e-014 -2.8625e-014
rhumerus -26.4138 30.0968 -85.9265
rradius 130.961
rwrist -14.3985
rhand -16.2461 28.0415
rfingers 7.12502
rthumb 9.96274 -1.70272
lclavicle -2.93207e-014 -2.8625e-014
lhumerus -24.8126 6.96283 57.4292
lradius 123.74
lwrist 29.8906
lhand -6.78406 13.9147
lfingers 7.12502
lthumb 19.0785 42.999
rfemur 2.06312 0.803099 20.7395
rtibia 44.3851
rfoot -32.9864 -7.49682
rtoes -31.828
lfemur -29.5799 7.43367 6.83241
ltibia 40.7957
lfoot 4.31245 -1.62005
ltoes -22.5542
7586
root 0.989344 16.4045 5.48647 3.07774 -43.7473 -10.8416
lowerback 18.1213 1.13152 3.67615
upperback 1.96234 2.52217 4.56875
thorax -8.10099 1.12929 2.22973
lowerneck -19.2254 7.88931 -8.01715
upperneck 14.6869 12.3227 3.10929
head 6.93128 5.75056 3.60815
rclavicle -1.18327e-013 3.97569e-016
rhumerus -25.7602 29.2886 -86.0369
rradius 130.838
rwrist -14.2161
rhand -16.1638 28.0333
rfingers 7.12502
rthumb 10.0422 -1.70714
lclavicle -1.18327e-013 3.97569e-016
lhumerus -25.6311 6.22613 59.4451
lradius 125.944
lwrist 29.6286
lhand -6.32669 13.151
lfingers 7.12502
lthumb 19.5183 42.1913
rfemur 2.22169 0.354922 20.997
rtibia 44.4124
rfoot -33.5958 -7.1577
rtoes -30.3623
lfemur -29.5204 7.19292 7.06403
ltibia 40.2288
lfoot 4.89044 -1.21558
ltoes -19.7883
7587
root 0.963637 16.3993 5.39735 2.82434 -43.1812 -10.6812
lowerback 17.969 1.26298 3.70523
upperback 2.0503 2.67631 4.43615
thorax -7.91517 1.20386 2.03265
lowerneck -19.5239 7.69303 -7.78475
upperneck 14.8832 12.0182 3.15369
head 7.07456 5.61151 3.58652
rclavicle 6.4605e-014 -1.98785e-015
rhumerus -25.5108 28.6096 -86.1013
rradius 130.859
rwrist -14.4745
rhand -15.5886 27.5643
rfingers 7.12502
rthumb 10.597 -2.14856
lclavicle 6.4605e-014 -1.98785e-015
lhumerus -26.4298 5.55702 61.5499
lradius 127.698
lwrist 28.9456
lhand -6.20537 12.8229
lfingers 7.12502
lthumb 19.6349 41.8513
rfemur 2.3458 -0.169355 21.1636
rtibia 44.3507
rfoot -34.1821 -6.84829
rtoes -29.2655
lfemur -29.5446 6.56271 7.17937
ltibia 39.5904
lfoot 5.46628 -0.654566
ltoes -18.7987
7588
root 0.937703 16.3972 5.30983 2.62861 -42.5901 -10.6083
lowerback 17.7313 1.26739 3.70106
upperback 2.07787 2.66765 4.46465
thorax -7.75605 1.20333 2.07116
lowerneck -19.312 7.50938 -8.10294
upperneck 14.8037 11.7959 3.37083
head 6.99302 5.51457 3.66681
rclavicle -9.01985e-014 -1.59028e-015
rhumerus -25.5582 28.4669 -86.2455
rradius 131.025
rwrist -14.984
rhand -14.7523 26.8827
rfingers 7.12502
rthumb 11.4036 -2.7872
lclavicle -9.01985e-014 -1.59028e-015
lhumerus -27.6103 5.42497 63.6136
lradius 129.065
lwrist 28.1044
lhand -5.90597 12.534
lfingers 7.12502
lthumb 19.9227 41.5328
rfemur 2.52363 -0.669684 21.3999
rtibia 44.2039
rfoot -34.4762 -6.73771
rtoes -28.6026
lfemur -29.5366 5.86023 7.3382
ltibia 38.9228
lfoot 6.13614 -0.583206
ltoes -21.7706
7589
root 0.913892 16.3971 5.23052 2.3673 -42.0818 -10.5267
lowerback 17.8779 1.47104 3.46718
upperback 1.92757 2.93242 4.69075
thorax -8.02937 1.33998 2.38256
lowerneck -19.2466 7.25278 -8.52809
upperneck 15.0926 11.5349 3.54674
head 7.05764 5.37209 3.77145
rclavicle -1.14301e-014 1.23246e-014
rhumerus -26.0033 28.2393 -86.2527
rradius 131.166
rwrist -15.3894
rhand -13.9995 26.3249
rfingers 7.12502
rthumb 12.1296 -3.30353
lclavicle -1.14301e-014 1.23246e-014
lhumerus -29.1389 4.87127 66.3241
lradius 130.608
lwrist 27.866
lhand -7.61664 14.238
lfingers 7.12502
lthumb 18.2777 43.3993
rfemur 2.74611 -1.1854 21.5827
rtibia 44.0068
rfoot -34.4076 -6.92457
rtoes -28.9257
lfemur -29.4112 5.24291 7.46788
ltibia 38.243
lfoot 6.39599 -1.69964
ltoes -29.5934
7590
root 0.88948 16.4059 5.15397 1.97851 -41.6164 -10.2774
lowerback 17.695 1.75683 3.62325
upperback 2.01779 3.30849 4.49705
thorax -7.81638 1.51713 1.99627
lowerneck -19.2638 6.89894 -8.36251
upperneck 15.0333 11.0228 3.48239
head 7.08872 5.13075 3.67962
rclavicle -3.59303e-014 2.3059e-014
rhumerus -26.1465 27.4327 -86.6013
rradius 131.135
rwrist -15.3776
rhand -13.5465 25.9869
rfingers 7.12502
rthumb 12.5663 -3.61514
lclavicle -3.59303e-014 2.3059e-014
lhumerus -30.0636 3.6837 68.8573
lradius 132.211
lwrist 27.7425
lhand -7.66478 14.7878
lfingers 7.12502
lthumb 18.2314 43.9534
rfemur 2.94952 -1.73558 21.5995
rtibia 43.8031
rfoot -34.2176 -6.95757
rtoes -29.5226
lfemur -29.2221 4.55918 7.4937
ltibia 37.5326
lfoot 6.33505 -2.83905
ltoes -35.072
7591
root 0.864444 16.4292 5.07991 1.55462 -41.15 -9.8779
lowerback 17.162 1.96199 3.90584
upperback 2.29815 3.54511 4.04993
thorax -7.17393 1.62904 1.31585
lowerneck -19.3116 6.55693 -8.08132
upperneck 14.663 10.4783 3.47788
head 7.0255 4.89871 3.57371
rclavicle -5.66536e-014 3.10104e-014
rhumerus -25.9648 26.5788 -87.2526
rradius 131.175
rwrist -15.4108
rhand -12.7537 25.1288
rfingers 7.12502
rthumb 13.3307 -4.42484
lclavicle -5.66536e-014 3.10104e-014
lhumerus -30.6745 2.68214 70.9682
lradius 133.417
lwrist 27.0169
lhand -7.59609 14.5666
lfingers 7.12502
lthumb 18.2974 43.7261
rfemur 3.03704 -2.46795 21.428
rtibia 43.5885
rfoot -33.8834 -7.23823
rtoes -30.7253
lfemur -29.0752 3.94877 7.36403
ltibia 36.7807
lfoot 7.24949 -2.63611
ltoes -34.7824
